<svg width="13" height="14" viewBox="0 0 13 14" fill="none" xmlns="http://www.w3.org/2000/svg">
<path fill-rule="evenodd" clip-rule="evenodd" d="M7.79292 8.2638C6.361 9.69572 4.03939 9.69572 2.60747 8.2638C1.17555 6.83188 1.17555 4.51027 2.60747 3.07835C4.03939 1.64643 6.361 1.64643 7.79292 3.07835C9.22484 4.51027 9.22484 6.83188 7.79292 8.2638ZM8.2333 9.64676C6.27308 11.1462 3.45749 10.9994 1.66466 9.20661C-0.28796 7.25399 -0.28796 4.08816 1.66466 2.13554C3.61728 0.182918 6.78311 0.182918 8.73573 2.13554C10.5285 3.92829 10.6753 6.74371 9.17608 8.70392L12.7428 12.2706L11.8 13.2134L8.2333 9.64676Z" fill="white"/>
</svg>
